<mxfile host="app.diagrams.net" modified="2023-12-07T12:54:14.334Z" agent="Mozilla/5.0 (Windows NT 10.0; Win64; x64) AppleWebKit/537.36 (KHTML, like Gecko) Chrome/118.0.5993.2470 YaBrowser/23.11.0.2470 Yowser/2.5 Safari/537.36" etag="O0jufhUfOEYB8cAWck98" version="22.1.7" type="device" pages="3">
  <diagram name="Страница — 1" id="o6aZ4ThOyEK2ZtHlcNy_">
    <mxGraphModel dx="1386" dy="759" grid="1" gridSize="10" guides="1" tooltips="1" connect="1" arrows="1" fold="1" page="1" pageScale="1" pageWidth="827" pageHeight="1169" math="0" shadow="0">
      <root>
        <mxCell id="0" />
        <mxCell id="1" parent="0" />
        <mxCell id="mjszKd17ltcZ5KNbpCO--2" value="Пользователь&lt;br&gt;" style="shape=umlActor;verticalLabelPosition=bottom;verticalAlign=top;html=1;outlineConnect=0;" parent="1" vertex="1">
          <mxGeometry x="330" y="220" width="30" height="60" as="geometry" />
        </mxCell>
        <mxCell id="mjszKd17ltcZ5KNbpCO--13" value="" style="endArrow=classic;html=1;rounded=0;" parent="1" target="mjszKd17ltcZ5KNbpCO--14" edge="1">
          <mxGeometry width="50" height="50" relative="1" as="geometry">
            <mxPoint x="350" y="310" as="sourcePoint" />
            <mxPoint x="350" y="380" as="targetPoint" />
          </mxGeometry>
        </mxCell>
        <mxCell id="mjszKd17ltcZ5KNbpCO--14" value="Пользование функционалом игр" style="rounded=0;whiteSpace=wrap;html=1;" parent="1" vertex="1">
          <mxGeometry x="285" y="370" width="120" height="60" as="geometry" />
        </mxCell>
        <mxCell id="mjszKd17ltcZ5KNbpCO--15" value="Добавление игры в библиотеку" style="rounded=0;whiteSpace=wrap;html=1;" parent="1" vertex="1">
          <mxGeometry x="140" y="230" width="120" height="60" as="geometry" />
        </mxCell>
        <mxCell id="mjszKd17ltcZ5KNbpCO--18" value="" style="endArrow=classic;html=1;rounded=0;entryX=1;entryY=0.75;entryDx=0;entryDy=0;" parent="1" target="mjszKd17ltcZ5KNbpCO--15" edge="1">
          <mxGeometry width="50" height="50" relative="1" as="geometry">
            <mxPoint x="320" y="260" as="sourcePoint" />
            <mxPoint x="350" y="380" as="targetPoint" />
          </mxGeometry>
        </mxCell>
        <mxCell id="mjszKd17ltcZ5KNbpCO--19" value="" style="endArrow=classic;html=1;rounded=0;" parent="1" target="mjszKd17ltcZ5KNbpCO--20" edge="1">
          <mxGeometry width="50" height="50" relative="1" as="geometry">
            <mxPoint x="285" y="440" as="sourcePoint" />
            <mxPoint x="235" y="500" as="targetPoint" />
          </mxGeometry>
        </mxCell>
        <mxCell id="mjszKd17ltcZ5KNbpCO--20" value="Запустить" style="rounded=0;whiteSpace=wrap;html=1;" parent="1" vertex="1">
          <mxGeometry x="175" y="470" width="120" height="60" as="geometry" />
        </mxCell>
        <mxCell id="mjszKd17ltcZ5KNbpCO--21" value="" style="endArrow=classic;html=1;rounded=0;exitX=0.5;exitY=1;exitDx=0;exitDy=0;" parent="1" source="mjszKd17ltcZ5KNbpCO--14" target="mjszKd17ltcZ5KNbpCO--22" edge="1">
          <mxGeometry width="50" height="50" relative="1" as="geometry">
            <mxPoint x="300" y="430" as="sourcePoint" />
            <mxPoint x="340" y="480" as="targetPoint" />
          </mxGeometry>
        </mxCell>
        <mxCell id="mjszKd17ltcZ5KNbpCO--22" value="играть" style="rounded=0;whiteSpace=wrap;html=1;" parent="1" vertex="1">
          <mxGeometry x="295" y="465" width="120" height="70" as="geometry" />
        </mxCell>
        <mxCell id="mjszKd17ltcZ5KNbpCO--23" value="" style="endArrow=classic;html=1;rounded=0;exitX=1;exitY=1;exitDx=0;exitDy=0;" parent="1" source="mjszKd17ltcZ5KNbpCO--14" target="mjszKd17ltcZ5KNbpCO--24" edge="1">
          <mxGeometry width="50" height="50" relative="1" as="geometry">
            <mxPoint x="300" y="420" as="sourcePoint" />
            <mxPoint x="470" y="480" as="targetPoint" />
          </mxGeometry>
        </mxCell>
        <mxCell id="mjszKd17ltcZ5KNbpCO--24" value="Настройки" style="rounded=0;whiteSpace=wrap;html=1;" parent="1" vertex="1">
          <mxGeometry x="415" y="470" width="120" height="60" as="geometry" />
        </mxCell>
      </root>
    </mxGraphModel>
  </diagram>
  <diagram id="d3XoFqZ8-Fc94sEs56oO" name="Страница — 2">
    <mxGraphModel dx="1386" dy="759" grid="1" gridSize="10" guides="1" tooltips="1" connect="1" arrows="1" fold="1" page="1" pageScale="1" pageWidth="827" pageHeight="1169" math="0" shadow="0">
      <root>
        <mxCell id="0" />
        <mxCell id="1" parent="0" />
        <mxCell id="FSJdpnEdqRj1IDfBIJfU-1" value="Платформа" style="rounded=0;whiteSpace=wrap;html=1;" parent="1" vertex="1">
          <mxGeometry x="150" y="320" width="120" height="60" as="geometry" />
        </mxCell>
        <mxCell id="gU2Ua_OYAcRr2TdcqFTQ-2" value="Запуск" style="rounded=0;whiteSpace=wrap;html=1;" parent="1" vertex="1">
          <mxGeometry x="150" y="400" width="120" height="60" as="geometry" />
        </mxCell>
        <mxCell id="gU2Ua_OYAcRr2TdcqFTQ-3" value="Загрузка приложения" style="rounded=0;whiteSpace=wrap;html=1;" parent="1" vertex="1">
          <mxGeometry x="270" y="400" width="120" height="60" as="geometry" />
        </mxCell>
        <mxCell id="gU2Ua_OYAcRr2TdcqFTQ-4" value="" style="endArrow=classic;html=1;rounded=0;exitX=0.5;exitY=0;exitDx=0;exitDy=0;entryX=0.5;entryY=1;entryDx=0;entryDy=0;" parent="1" source="gU2Ua_OYAcRr2TdcqFTQ-2" target="FSJdpnEdqRj1IDfBIJfU-1" edge="1">
          <mxGeometry width="50" height="50" relative="1" as="geometry">
            <mxPoint x="200" y="430" as="sourcePoint" />
            <mxPoint x="250" y="380" as="targetPoint" />
          </mxGeometry>
        </mxCell>
        <mxCell id="gU2Ua_OYAcRr2TdcqFTQ-6" value="" style="endArrow=classic;html=1;rounded=0;entryX=1;entryY=1;entryDx=0;entryDy=0;exitX=0.5;exitY=0;exitDx=0;exitDy=0;" parent="1" source="gU2Ua_OYAcRr2TdcqFTQ-3" target="FSJdpnEdqRj1IDfBIJfU-1" edge="1">
          <mxGeometry width="50" height="50" relative="1" as="geometry">
            <mxPoint x="200" y="430" as="sourcePoint" />
            <mxPoint x="250" y="380" as="targetPoint" />
          </mxGeometry>
        </mxCell>
        <mxCell id="gU2Ua_OYAcRr2TdcqFTQ-7" value="Основное меню" style="rounded=0;whiteSpace=wrap;html=1;" parent="1" vertex="1">
          <mxGeometry x="150" y="480" width="120" height="60" as="geometry" />
        </mxCell>
        <mxCell id="gU2Ua_OYAcRr2TdcqFTQ-8" value="" style="endArrow=classic;html=1;rounded=0;exitX=0.5;exitY=1;exitDx=0;exitDy=0;entryX=0.5;entryY=0;entryDx=0;entryDy=0;" parent="1" source="gU2Ua_OYAcRr2TdcqFTQ-2" target="gU2Ua_OYAcRr2TdcqFTQ-7" edge="1">
          <mxGeometry width="50" height="50" relative="1" as="geometry">
            <mxPoint x="200" y="430" as="sourcePoint" />
            <mxPoint x="250" y="380" as="targetPoint" />
          </mxGeometry>
        </mxCell>
        <mxCell id="gU2Ua_OYAcRr2TdcqFTQ-9" value="Настройки" style="rounded=0;whiteSpace=wrap;html=1;" parent="1" vertex="1">
          <mxGeometry x="150" y="560" width="120" height="60" as="geometry" />
        </mxCell>
        <mxCell id="gU2Ua_OYAcRr2TdcqFTQ-10" value="Игра" style="rounded=0;whiteSpace=wrap;html=1;" parent="1" vertex="1">
          <mxGeometry x="270" y="560" width="120" height="60" as="geometry" />
        </mxCell>
        <mxCell id="gU2Ua_OYAcRr2TdcqFTQ-11" value="Выход из игры" style="rounded=0;whiteSpace=wrap;html=1;" parent="1" vertex="1">
          <mxGeometry x="30" y="560" width="120" height="60" as="geometry" />
        </mxCell>
        <mxCell id="gU2Ua_OYAcRr2TdcqFTQ-12" value="" style="endArrow=classic;html=1;rounded=0;exitX=0;exitY=0;exitDx=0;exitDy=0;entryX=0;entryY=0.5;entryDx=0;entryDy=0;" parent="1" source="gU2Ua_OYAcRr2TdcqFTQ-11" target="FSJdpnEdqRj1IDfBIJfU-1" edge="1">
          <mxGeometry width="50" height="50" relative="1" as="geometry">
            <mxPoint x="190" y="430" as="sourcePoint" />
            <mxPoint x="240" y="380" as="targetPoint" />
            <Array as="points">
              <mxPoint x="30" y="470" />
              <mxPoint x="30" y="410" />
              <mxPoint x="30" y="350" />
            </Array>
          </mxGeometry>
        </mxCell>
        <mxCell id="GCxdAtonbEam86jwlj_p-2" value="" style="endArrow=classic;html=1;rounded=0;entryX=0.5;entryY=0;entryDx=0;entryDy=0;exitX=0;exitY=1;exitDx=0;exitDy=0;" parent="1" source="gU2Ua_OYAcRr2TdcqFTQ-7" target="gU2Ua_OYAcRr2TdcqFTQ-11" edge="1">
          <mxGeometry width="50" height="50" relative="1" as="geometry">
            <mxPoint x="150" y="430" as="sourcePoint" />
            <mxPoint x="200" y="380" as="targetPoint" />
          </mxGeometry>
        </mxCell>
        <mxCell id="GCxdAtonbEam86jwlj_p-8" value="" style="endArrow=classic;startArrow=classic;html=1;rounded=0;exitX=0.5;exitY=0;exitDx=0;exitDy=0;entryX=1;entryY=1;entryDx=0;entryDy=0;" parent="1" source="gU2Ua_OYAcRr2TdcqFTQ-10" target="gU2Ua_OYAcRr2TdcqFTQ-7" edge="1">
          <mxGeometry width="50" height="50" relative="1" as="geometry">
            <mxPoint x="190" y="430" as="sourcePoint" />
            <mxPoint x="240" y="380" as="targetPoint" />
          </mxGeometry>
        </mxCell>
        <mxCell id="GCxdAtonbEam86jwlj_p-9" value="" style="endArrow=classic;startArrow=classic;html=1;rounded=0;exitX=0.5;exitY=0;exitDx=0;exitDy=0;entryX=0.5;entryY=1;entryDx=0;entryDy=0;" parent="1" source="gU2Ua_OYAcRr2TdcqFTQ-9" target="gU2Ua_OYAcRr2TdcqFTQ-7" edge="1">
          <mxGeometry width="50" height="50" relative="1" as="geometry">
            <mxPoint x="190" y="430" as="sourcePoint" />
            <mxPoint x="240" y="380" as="targetPoint" />
          </mxGeometry>
        </mxCell>
      </root>
    </mxGraphModel>
  </diagram>
  <diagram id="0-SFKI34dU3b47_YORIL" name="Страница — 3">
    <mxGraphModel dx="2213" dy="759" grid="1" gridSize="10" guides="1" tooltips="1" connect="1" arrows="1" fold="1" page="1" pageScale="1" pageWidth="827" pageHeight="1169" math="0" shadow="0">
      <root>
        <mxCell id="0" />
        <mxCell id="1" parent="0" />
        <mxCell id="9M0REx57lFB3rn6bbXSA-1" value="Пользователь" style="rounded=0;whiteSpace=wrap;html=1;" parent="1" vertex="1">
          <mxGeometry x="200" y="240" width="120" height="60" as="geometry" />
        </mxCell>
        <mxCell id="YHmRps18gKwAqSLQzKda-2" value="Вход в приложение" style="rounded=1;whiteSpace=wrap;html=1;fillColor=#e1d5e7;strokeColor=#9673a6;" parent="1" vertex="1">
          <mxGeometry x="200" y="360" width="120" height="60" as="geometry" />
        </mxCell>
        <mxCell id="YHmRps18gKwAqSLQzKda-3" value="" style="endArrow=classic;startArrow=classic;html=1;rounded=0;entryX=0.5;entryY=1;entryDx=0;entryDy=0;exitX=0.5;exitY=0;exitDx=0;exitDy=0;" parent="1" source="YHmRps18gKwAqSLQzKda-2" target="9M0REx57lFB3rn6bbXSA-1" edge="1">
          <mxGeometry width="50" height="50" relative="1" as="geometry">
            <mxPoint x="230" y="360" as="sourcePoint" />
            <mxPoint x="280" y="310" as="targetPoint" />
          </mxGeometry>
        </mxCell>
        <mxCell id="YHmRps18gKwAqSLQzKda-4" value="" style="endArrow=classic;startArrow=classic;html=1;rounded=0;entryX=0;entryY=1;entryDx=0;entryDy=0;exitX=0.5;exitY=0;exitDx=0;exitDy=0;" parent="1" source="YHmRps18gKwAqSLQzKda-5" target="YHmRps18gKwAqSLQzKda-2" edge="1">
          <mxGeometry width="50" height="50" relative="1" as="geometry">
            <mxPoint x="150" y="450" as="sourcePoint" />
            <mxPoint x="200" y="420" as="targetPoint" />
            <Array as="points">
              <mxPoint x="140" y="420" />
            </Array>
          </mxGeometry>
        </mxCell>
        <mxCell id="YHmRps18gKwAqSLQzKda-5" value="Вход в игру 1" style="rounded=1;whiteSpace=wrap;html=1;fillColor=#e1d5e7;strokeColor=#9673a6;" parent="1" vertex="1">
          <mxGeometry x="80" y="470" width="120" height="60" as="geometry" />
        </mxCell>
        <mxCell id="YHmRps18gKwAqSLQzKda-6" value="Вход в игру 2" style="rounded=1;whiteSpace=wrap;html=1;fillColor=#e1d5e7;strokeColor=#9673a6;" parent="1" vertex="1">
          <mxGeometry x="320" y="470" width="120" height="60" as="geometry" />
        </mxCell>
        <mxCell id="YHmRps18gKwAqSLQzKda-7" value="" style="endArrow=classic;startArrow=classic;html=1;rounded=0;entryX=1;entryY=1;entryDx=0;entryDy=0;exitX=0.5;exitY=0;exitDx=0;exitDy=0;" parent="1" source="YHmRps18gKwAqSLQzKda-6" target="YHmRps18gKwAqSLQzKda-2" edge="1">
          <mxGeometry width="50" height="50" relative="1" as="geometry">
            <mxPoint x="200" y="430" as="sourcePoint" />
            <mxPoint x="250" y="380" as="targetPoint" />
            <Array as="points">
              <mxPoint x="380" y="420" />
            </Array>
          </mxGeometry>
        </mxCell>
        <mxCell id="YHmRps18gKwAqSLQzKda-8" value="Предоставление функционала" style="rounded=1;whiteSpace=wrap;html=1;" parent="1" vertex="1">
          <mxGeometry x="480" y="470" width="120" height="60" as="geometry" />
        </mxCell>
        <mxCell id="YHmRps18gKwAqSLQzKda-10" value="" style="endArrow=classic;html=1;rounded=0;entryX=0;entryY=0.5;entryDx=0;entryDy=0;exitX=1;exitY=0.5;exitDx=0;exitDy=0;" parent="1" source="YHmRps18gKwAqSLQzKda-6" target="YHmRps18gKwAqSLQzKda-8" edge="1">
          <mxGeometry width="50" height="50" relative="1" as="geometry">
            <mxPoint x="430" y="430" as="sourcePoint" />
            <mxPoint x="480" y="380" as="targetPoint" />
          </mxGeometry>
        </mxCell>
        <mxCell id="ZGG40lHYpIyoKLyY5FPT-3" value="" style="endArrow=classic;html=1;rounded=0;exitX=0.5;exitY=1;exitDx=0;exitDy=0;entryX=0.5;entryY=0;entryDx=0;entryDy=0;" parent="1" source="YHmRps18gKwAqSLQzKda-8" target="ZGG40lHYpIyoKLyY5FPT-4" edge="1">
          <mxGeometry width="50" height="50" relative="1" as="geometry">
            <mxPoint x="420" y="660" as="sourcePoint" />
            <mxPoint x="480" y="640" as="targetPoint" />
          </mxGeometry>
        </mxCell>
        <mxCell id="ZGG40lHYpIyoKLyY5FPT-4" value="Настройка" style="rounded=1;whiteSpace=wrap;html=1;" parent="1" vertex="1">
          <mxGeometry x="480" y="570" width="120" height="60" as="geometry" />
        </mxCell>
        <mxCell id="ZGG40lHYpIyoKLyY5FPT-5" value="Обработка данных" style="rounded=1;whiteSpace=wrap;html=1;" parent="1" vertex="1">
          <mxGeometry x="640" y="570" width="120" height="60" as="geometry" />
        </mxCell>
        <mxCell id="ZGG40lHYpIyoKLyY5FPT-6" value="" style="endArrow=classic;html=1;rounded=0;exitX=1;exitY=0.5;exitDx=0;exitDy=0;entryX=0;entryY=0.5;entryDx=0;entryDy=0;" parent="1" source="ZGG40lHYpIyoKLyY5FPT-4" target="ZGG40lHYpIyoKLyY5FPT-5" edge="1">
          <mxGeometry width="50" height="50" relative="1" as="geometry">
            <mxPoint x="370" y="680" as="sourcePoint" />
            <mxPoint x="420" y="630" as="targetPoint" />
          </mxGeometry>
        </mxCell>
        <mxCell id="ZGG40lHYpIyoKLyY5FPT-7" value="" style="endArrow=classic;html=1;rounded=0;exitX=0.5;exitY=0;exitDx=0;exitDy=0;entryX=1;entryY=1;entryDx=0;entryDy=0;" parent="1" source="ZGG40lHYpIyoKLyY5FPT-5" target="YHmRps18gKwAqSLQzKda-8" edge="1">
          <mxGeometry width="50" height="50" relative="1" as="geometry">
            <mxPoint x="430" y="550" as="sourcePoint" />
            <mxPoint x="480" y="500" as="targetPoint" />
          </mxGeometry>
        </mxCell>
        <mxCell id="ZGG40lHYpIyoKLyY5FPT-8" value="Игра" style="rounded=1;whiteSpace=wrap;html=1;" parent="1" vertex="1">
          <mxGeometry x="640" y="470" width="120" height="60" as="geometry" />
        </mxCell>
        <mxCell id="ZGG40lHYpIyoKLyY5FPT-11" value="" style="endArrow=classic;html=1;rounded=0;exitX=1;exitY=0.5;exitDx=0;exitDy=0;entryX=0;entryY=0.5;entryDx=0;entryDy=0;" parent="1" source="YHmRps18gKwAqSLQzKda-8" target="ZGG40lHYpIyoKLyY5FPT-8" edge="1">
          <mxGeometry width="50" height="50" relative="1" as="geometry">
            <mxPoint x="530" y="670" as="sourcePoint" />
            <mxPoint x="580" y="620" as="targetPoint" />
          </mxGeometry>
        </mxCell>
        <mxCell id="ZGG40lHYpIyoKLyY5FPT-12" value="" style="swimlane;horizontal=0;whiteSpace=wrap;html=1;" parent="1" vertex="1">
          <mxGeometry x="640" y="380" width="230" height="37.5" as="geometry" />
        </mxCell>
        <mxCell id="ZGG40lHYpIyoKLyY5FPT-13" value="Информация о&amp;nbsp;&lt;br&gt;результате прохождения уровня" style="text;html=1;align=center;verticalAlign=middle;resizable=0;points=[];autosize=1;strokeColor=none;fillColor=none;" parent="ZGG40lHYpIyoKLyY5FPT-12" vertex="1">
          <mxGeometry x="20" y="-2.5" width="200" height="40" as="geometry" />
        </mxCell>
        <mxCell id="ZGG40lHYpIyoKLyY5FPT-15" value="" style="endArrow=classic;html=1;rounded=0;exitX=0.5;exitY=0;exitDx=0;exitDy=0;entryX=0.201;entryY=1.036;entryDx=0;entryDy=0;entryPerimeter=0;" parent="1" source="ZGG40lHYpIyoKLyY5FPT-8" target="ZGG40lHYpIyoKLyY5FPT-13" edge="1">
          <mxGeometry width="50" height="50" relative="1" as="geometry">
            <mxPoint x="530" y="670" as="sourcePoint" />
            <mxPoint x="580" y="620" as="targetPoint" />
          </mxGeometry>
        </mxCell>
        <mxCell id="ZGG40lHYpIyoKLyY5FPT-16" value="" style="endArrow=classic;html=1;rounded=0;exitX=0;exitY=1;exitDx=0;exitDy=0;entryX=1;entryY=0;entryDx=0;entryDy=0;" parent="1" source="ZGG40lHYpIyoKLyY5FPT-12" target="YHmRps18gKwAqSLQzKda-8" edge="1">
          <mxGeometry width="50" height="50" relative="1" as="geometry">
            <mxPoint x="530" y="670" as="sourcePoint" />
            <mxPoint x="580" y="620" as="targetPoint" />
          </mxGeometry>
        </mxCell>
        <mxCell id="DWyIhL6Nwt0jspZzTmO0-1" value="Выход из игры" style="rounded=1;whiteSpace=wrap;html=1;" parent="1" vertex="1">
          <mxGeometry x="480" y="360" width="120" height="60" as="geometry" />
        </mxCell>
        <mxCell id="DWyIhL6Nwt0jspZzTmO0-2" value="" style="endArrow=classic;html=1;rounded=0;exitX=0.5;exitY=0;exitDx=0;exitDy=0;entryX=0.5;entryY=1;entryDx=0;entryDy=0;" parent="1" source="YHmRps18gKwAqSLQzKda-8" target="DWyIhL6Nwt0jspZzTmO0-1" edge="1">
          <mxGeometry width="50" height="50" relative="1" as="geometry">
            <mxPoint x="650" y="670" as="sourcePoint" />
            <mxPoint x="700" y="620" as="targetPoint" />
          </mxGeometry>
        </mxCell>
        <mxCell id="DWyIhL6Nwt0jspZzTmO0-3" value="" style="endArrow=classic;html=1;rounded=0;exitX=0;exitY=0.5;exitDx=0;exitDy=0;entryX=1;entryY=0.5;entryDx=0;entryDy=0;" parent="1" source="DWyIhL6Nwt0jspZzTmO0-1" edge="1">
          <mxGeometry width="50" height="50" relative="1" as="geometry">
            <mxPoint x="700" y="520" as="sourcePoint" />
            <mxPoint x="320" y="390" as="targetPoint" />
            <Array as="points" />
          </mxGeometry>
        </mxCell>
        <mxCell id="DWyIhL6Nwt0jspZzTmO0-4" value="Предоставление функционала" style="rounded=1;whiteSpace=wrap;html=1;" parent="1" vertex="1">
          <mxGeometry x="-80" y="470" width="120" height="60" as="geometry" />
        </mxCell>
        <mxCell id="DWyIhL6Nwt0jspZzTmO0-5" value="" style="endArrow=classic;html=1;rounded=0;entryX=1;entryY=0.5;entryDx=0;entryDy=0;exitX=0;exitY=0.5;exitDx=0;exitDy=0;" parent="1" source="YHmRps18gKwAqSLQzKda-5" target="DWyIhL6Nwt0jspZzTmO0-4" edge="1">
          <mxGeometry width="50" height="50" relative="1" as="geometry">
            <mxPoint x="270" y="550" as="sourcePoint" />
            <mxPoint x="320" y="500" as="targetPoint" />
          </mxGeometry>
        </mxCell>
        <mxCell id="DWyIhL6Nwt0jspZzTmO0-15" value="Игра" style="rounded=1;whiteSpace=wrap;html=1;" parent="1" vertex="1">
          <mxGeometry x="-240" y="470" width="120" height="60" as="geometry" />
        </mxCell>
        <mxCell id="DWyIhL6Nwt0jspZzTmO0-17" value="" style="swimlane;horizontal=0;whiteSpace=wrap;html=1;" parent="1" vertex="1">
          <mxGeometry x="-340" y="367.5" width="220" height="50" as="geometry" />
        </mxCell>
        <mxCell id="DWyIhL6Nwt0jspZzTmO0-16" value="Информация о&amp;nbsp;&lt;br&gt;результате прохождения уровня" style="text;html=1;align=center;verticalAlign=middle;resizable=0;points=[];autosize=1;strokeColor=none;fillColor=none;" parent="DWyIhL6Nwt0jspZzTmO0-17" vertex="1">
          <mxGeometry x="20" width="200" height="40" as="geometry" />
        </mxCell>
        <mxCell id="DWyIhL6Nwt0jspZzTmO0-18" value="Выход из игры" style="rounded=1;whiteSpace=wrap;html=1;" parent="1" vertex="1">
          <mxGeometry x="-80" y="360" width="120" height="60" as="geometry" />
        </mxCell>
        <mxCell id="DWyIhL6Nwt0jspZzTmO0-19" value="" style="endArrow=classic;html=1;rounded=0;exitX=0;exitY=0.5;exitDx=0;exitDy=0;entryX=1;entryY=0.5;entryDx=0;entryDy=0;" parent="1" source="DWyIhL6Nwt0jspZzTmO0-4" target="DWyIhL6Nwt0jspZzTmO0-15" edge="1">
          <mxGeometry width="50" height="50" relative="1" as="geometry">
            <mxPoint x="-40" y="550" as="sourcePoint" />
            <mxPoint x="10" y="500" as="targetPoint" />
          </mxGeometry>
        </mxCell>
        <mxCell id="DWyIhL6Nwt0jspZzTmO0-20" value="" style="endArrow=classic;html=1;rounded=0;exitX=0.5;exitY=0;exitDx=0;exitDy=0;" parent="1" source="DWyIhL6Nwt0jspZzTmO0-15" edge="1">
          <mxGeometry width="50" height="50" relative="1" as="geometry">
            <mxPoint x="-40" y="550" as="sourcePoint" />
            <mxPoint x="-180" y="420" as="targetPoint" />
          </mxGeometry>
        </mxCell>
        <mxCell id="DWyIhL6Nwt0jspZzTmO0-21" value="" style="endArrow=classic;html=1;rounded=0;exitX=1;exitY=1;exitDx=0;exitDy=0;entryX=0;entryY=0;entryDx=0;entryDy=0;" parent="1" source="DWyIhL6Nwt0jspZzTmO0-17" target="DWyIhL6Nwt0jspZzTmO0-4" edge="1">
          <mxGeometry width="50" height="50" relative="1" as="geometry">
            <mxPoint x="-60" y="550" as="sourcePoint" />
            <mxPoint x="-10" y="500" as="targetPoint" />
          </mxGeometry>
        </mxCell>
        <mxCell id="DWyIhL6Nwt0jspZzTmO0-22" value="" style="endArrow=classic;html=1;rounded=0;exitX=0.5;exitY=0;exitDx=0;exitDy=0;entryX=0.5;entryY=1;entryDx=0;entryDy=0;" parent="1" source="DWyIhL6Nwt0jspZzTmO0-4" target="DWyIhL6Nwt0jspZzTmO0-18" edge="1">
          <mxGeometry width="50" height="50" relative="1" as="geometry">
            <mxPoint x="90" y="550" as="sourcePoint" />
            <mxPoint x="140" y="500" as="targetPoint" />
          </mxGeometry>
        </mxCell>
        <mxCell id="DWyIhL6Nwt0jspZzTmO0-23" value="" style="endArrow=classic;html=1;rounded=0;entryX=0;entryY=0.5;entryDx=0;entryDy=0;exitX=1;exitY=0.5;exitDx=0;exitDy=0;" parent="1" source="DWyIhL6Nwt0jspZzTmO0-18" target="YHmRps18gKwAqSLQzKda-2" edge="1">
          <mxGeometry width="50" height="50" relative="1" as="geometry">
            <mxPoint x="40" y="550" as="sourcePoint" />
            <mxPoint x="90" y="500" as="targetPoint" />
          </mxGeometry>
        </mxCell>
        <mxCell id="CdVpSj-VN0jV-wFc-Ukk-16" style="edgeStyle=orthogonalEdgeStyle;rounded=0;orthogonalLoop=1;jettySize=auto;html=1;" edge="1" parent="1" source="uIEjnap3uuQfAjCOhPON-1">
          <mxGeometry relative="1" as="geometry">
            <mxPoint x="260" y="480" as="targetPoint" />
          </mxGeometry>
        </mxCell>
        <mxCell id="CdVpSj-VN0jV-wFc-Ukk-1" value="Предоставление функционала" style="rounded=1;whiteSpace=wrap;html=1;" vertex="1" parent="1">
          <mxGeometry x="190" y="695" width="120" height="60" as="geometry" />
        </mxCell>
        <mxCell id="CdVpSj-VN0jV-wFc-Ukk-3" value="" style="endArrow=classic;html=1;rounded=0;exitX=0.5;exitY=1;exitDx=0;exitDy=0;entryX=0.5;entryY=0;entryDx=0;entryDy=0;" edge="1" parent="1" source="CdVpSj-VN0jV-wFc-Ukk-1" target="CdVpSj-VN0jV-wFc-Ukk-4">
          <mxGeometry width="50" height="50" relative="1" as="geometry">
            <mxPoint x="130" y="885" as="sourcePoint" />
            <mxPoint x="190" y="865" as="targetPoint" />
          </mxGeometry>
        </mxCell>
        <mxCell id="CdVpSj-VN0jV-wFc-Ukk-4" value="Настройка" style="rounded=1;whiteSpace=wrap;html=1;" vertex="1" parent="1">
          <mxGeometry x="190" y="795" width="120" height="60" as="geometry" />
        </mxCell>
        <mxCell id="CdVpSj-VN0jV-wFc-Ukk-5" value="Обработка данных" style="rounded=1;whiteSpace=wrap;html=1;" vertex="1" parent="1">
          <mxGeometry x="350" y="795" width="120" height="60" as="geometry" />
        </mxCell>
        <mxCell id="CdVpSj-VN0jV-wFc-Ukk-6" value="" style="endArrow=classic;html=1;rounded=0;exitX=1;exitY=0.5;exitDx=0;exitDy=0;entryX=0;entryY=0.5;entryDx=0;entryDy=0;" edge="1" parent="1" source="CdVpSj-VN0jV-wFc-Ukk-4" target="CdVpSj-VN0jV-wFc-Ukk-5">
          <mxGeometry width="50" height="50" relative="1" as="geometry">
            <mxPoint x="80" y="905" as="sourcePoint" />
            <mxPoint x="130" y="855" as="targetPoint" />
          </mxGeometry>
        </mxCell>
        <mxCell id="CdVpSj-VN0jV-wFc-Ukk-7" value="" style="endArrow=classic;html=1;rounded=0;exitX=0.5;exitY=0;exitDx=0;exitDy=0;entryX=1;entryY=1;entryDx=0;entryDy=0;" edge="1" parent="1" source="CdVpSj-VN0jV-wFc-Ukk-5" target="CdVpSj-VN0jV-wFc-Ukk-1">
          <mxGeometry width="50" height="50" relative="1" as="geometry">
            <mxPoint x="140" y="775" as="sourcePoint" />
            <mxPoint x="190" y="725" as="targetPoint" />
          </mxGeometry>
        </mxCell>
        <mxCell id="CdVpSj-VN0jV-wFc-Ukk-8" value="Игра" style="rounded=1;whiteSpace=wrap;html=1;" vertex="1" parent="1">
          <mxGeometry x="350" y="695" width="120" height="60" as="geometry" />
        </mxCell>
        <mxCell id="CdVpSj-VN0jV-wFc-Ukk-9" value="" style="endArrow=classic;html=1;rounded=0;exitX=1;exitY=0.5;exitDx=0;exitDy=0;entryX=0;entryY=0.5;entryDx=0;entryDy=0;" edge="1" parent="1" source="CdVpSj-VN0jV-wFc-Ukk-1" target="CdVpSj-VN0jV-wFc-Ukk-8">
          <mxGeometry width="50" height="50" relative="1" as="geometry">
            <mxPoint x="240" y="895" as="sourcePoint" />
            <mxPoint x="290" y="845" as="targetPoint" />
          </mxGeometry>
        </mxCell>
        <mxCell id="CdVpSj-VN0jV-wFc-Ukk-10" value="" style="swimlane;horizontal=0;whiteSpace=wrap;html=1;" vertex="1" parent="1">
          <mxGeometry x="250" y="610" width="230" height="37.5" as="geometry" />
        </mxCell>
        <mxCell id="CdVpSj-VN0jV-wFc-Ukk-11" value="Информация о&amp;nbsp;&lt;br&gt;результате прохождения уровня" style="text;html=1;align=center;verticalAlign=middle;resizable=0;points=[];autosize=1;strokeColor=none;fillColor=none;" vertex="1" parent="CdVpSj-VN0jV-wFc-Ukk-10">
          <mxGeometry x="10" y="-2.5" width="200" height="40" as="geometry" />
        </mxCell>
        <mxCell id="CdVpSj-VN0jV-wFc-Ukk-12" value="" style="endArrow=classic;html=1;rounded=0;exitX=0.5;exitY=0;exitDx=0;exitDy=0;entryX=0.201;entryY=1.036;entryDx=0;entryDy=0;entryPerimeter=0;" edge="1" parent="1" source="CdVpSj-VN0jV-wFc-Ukk-8" target="CdVpSj-VN0jV-wFc-Ukk-11">
          <mxGeometry width="50" height="50" relative="1" as="geometry">
            <mxPoint x="240" y="895" as="sourcePoint" />
            <mxPoint x="290" y="845" as="targetPoint" />
          </mxGeometry>
        </mxCell>
        <mxCell id="CdVpSj-VN0jV-wFc-Ukk-13" value="" style="endArrow=classic;html=1;rounded=0;exitX=0;exitY=1;exitDx=0;exitDy=0;" edge="1" parent="1" source="CdVpSj-VN0jV-wFc-Ukk-10" target="CdVpSj-VN0jV-wFc-Ukk-1">
          <mxGeometry width="50" height="50" relative="1" as="geometry">
            <mxPoint x="240" y="895" as="sourcePoint" />
            <mxPoint x="290" y="845" as="targetPoint" />
          </mxGeometry>
        </mxCell>
        <mxCell id="CdVpSj-VN0jV-wFc-Ukk-14" value="Выход из игры" style="rounded=1;whiteSpace=wrap;html=1;" vertex="1" parent="1">
          <mxGeometry x="60" y="620" width="120" height="60" as="geometry" />
        </mxCell>
        <mxCell id="CdVpSj-VN0jV-wFc-Ukk-15" value="" style="endArrow=classic;html=1;rounded=0;exitX=0.5;exitY=0;exitDx=0;exitDy=0;entryX=0.5;entryY=1;entryDx=0;entryDy=0;" edge="1" parent="1" source="CdVpSj-VN0jV-wFc-Ukk-1" target="CdVpSj-VN0jV-wFc-Ukk-14">
          <mxGeometry width="50" height="50" relative="1" as="geometry">
            <mxPoint x="360" y="895" as="sourcePoint" />
            <mxPoint x="410" y="845" as="targetPoint" />
          </mxGeometry>
        </mxCell>
        <mxCell id="uIEjnap3uuQfAjCOhPON-2" value="" style="edgeStyle=orthogonalEdgeStyle;rounded=0;orthogonalLoop=1;jettySize=auto;html=1;entryX=0.417;entryY=1;entryDx=0;entryDy=0;entryPerimeter=0;" edge="1" parent="1" source="CdVpSj-VN0jV-wFc-Ukk-1" target="uIEjnap3uuQfAjCOhPON-1">
          <mxGeometry relative="1" as="geometry">
            <mxPoint x="250" y="695" as="sourcePoint" />
            <mxPoint x="260" y="480" as="targetPoint" />
          </mxGeometry>
        </mxCell>
        <mxCell id="uIEjnap3uuQfAjCOhPON-3" style="edgeStyle=orthogonalEdgeStyle;rounded=0;orthogonalLoop=1;jettySize=auto;html=1;exitX=0.5;exitY=0;exitDx=0;exitDy=0;entryX=0.5;entryY=1;entryDx=0;entryDy=0;" edge="1" parent="1" source="uIEjnap3uuQfAjCOhPON-1" target="YHmRps18gKwAqSLQzKda-2">
          <mxGeometry relative="1" as="geometry" />
        </mxCell>
        <mxCell id="uIEjnap3uuQfAjCOhPON-1" value="Вход в игру 3" style="rounded=1;whiteSpace=wrap;html=1;fillColor=#e1d5e7;strokeColor=#9673a6;" vertex="1" parent="1">
          <mxGeometry x="200" y="510" width="120" height="60" as="geometry" />
        </mxCell>
      </root>
    </mxGraphModel>
  </diagram>
</mxfile>
